<svg xmlns="http://www.w3.org/2000/svg" xmlns:xlink="http://www.w3.org/1999/xlink" width="500" zoomAndPan="magnify" viewBox="0 0 375 374.999991" height="500" preserveAspectRatio="xMidYMid meet" version="1.0"><defs><g/><clipPath id="56332e77b7"><path d="M 53 177.125 L 328 177.125 L 328 326.34375 L 53 326.34375 Z M 53 177.125 " clip-rule="nonzero"/></clipPath><clipPath id="e99b5aed63"><path d="M 43.128906 32.402344 L 337.128906 32.402344 L 337.128906 313.804688 L 43.128906 313.804688 Z M 43.128906 32.402344 " clip-rule="nonzero"/></clipPath></defs><g clip-path="url(#56332e77b7)"><path fill="#b48bcc" d="M 77.832031 177.484375 C 77.867188 179.078125 77.054688 181.679688 77.480469 183.898438 C 79.582031 194.898438 88.78125 205.640625 84.820312 217.214844 C 82.542969 223.863281 76.542969 227.476562 72.292969 232.675781 C 68.773438 236.980469 64.363281 253.945312 55.792969 244.859375 C 50.046875 238.765625 56.050781 215.628906 58.425781 207.636719 Z M 297.410156 263.53125 C 297.46875 263.535156 297.230469 263.109375 297.203125 263.039062 C 296.179688 260.261719 295.589844 257.261719 295.011719 254.371094 C 293.554688 247.128906 292.554688 239.511719 292.714844 232.109375 C 292.945312 221.804688 297.757812 225.351562 304.601562 221.917969 C 311.136719 218.640625 313.941406 198.082031 321.003906 201.714844 C 324.621094 203.574219 326.039062 208.730469 326.910156 212.34375 C 332.613281 236.039062 310.105469 258.074219 292.402344 270.597656 Z M 110.03125 287.941406 C 108.828125 287.957031 111.914062 286.328125 112.460938 285.25 C 113.628906 282.945312 114.457031 280.484375 115.15625 278 C 117.054688 271.242188 118.785156 255.960938 128.921875 256.824219 C 130.902344 256.988281 166.757812 292.566406 138.238281 289.667969 Z M 62.320312 280.695312 C 62.875 280.921875 62.234375 281.902344 62.3125 282.496094 C 62.960938 287.378906 64.617188 292.121094 66.738281 296.546875 C 70.152344 303.675781 78.234375 310.945312 79.242188 318.925781 C 81.316406 335.359375 62.105469 320.074219 58.449219 315.09375 C 53.617188 308.507812 57.640625 295.914062 58.976562 288.726562 L 62.320312 280.695312 " fill-opacity="1" fill-rule="evenodd"/></g><path fill="#5e6697" d="M 264.222656 135.871094 C 263.347656 140.09375 265.964844 144.34375 262.011719 146.574219 C 252.089844 152.175781 236.117188 149.003906 231.855469 137.886719 C 231.339844 136.535156 231.128906 135.105469 231.164062 133.652344 C 231 133.574219 230.84375 133.476562 230.707031 133.347656 C 218.167969 121.757812 204.136719 129.21875 201.609375 130.726562 C 201.4375 133.253906 200.710938 135.828125 199.289062 138.347656 C 197.46875 141.578125 194.796875 144.972656 191.285156 146.484375 C 170.019531 155.640625 144.328125 133.066406 165.246094 114.0625 C 168.917969 110.730469 173.242188 108.628906 178.144531 107.871094 C 179.976562 107.589844 182 107.949219 183.910156 108.164062 C 191.226562 108.996094 199.855469 117.011719 201.40625 126.515625 C 206.628906 123.898438 219.660156 119.199219 231.949219 129.394531 C 233.824219 123.730469 238.796875 118.375 244.089844 116.179688 C 254.667969 111.789062 263.792969 118.046875 267.765625 126.003906 C 267.855469 126.179688 267.15625 126.851562 267.078125 126.949219 C 265.136719 129.375 264.839844 132.875 264.222656 135.871094 " fill-opacity="1" fill-rule="evenodd"/><g clip-path="url(#e99b5aed63)"><path stroke-linecap="round" transform="matrix(0.0445995, 0, 0, -0.0446671, 43.128258, 326.342731)" fill="none" stroke-linejoin="round" d="M 4963.984791 2990.416714 C 4967.750948 2991.641049 5032.651469 2946.777897 5043.161675 2943.717059 C 5174.626835 2905.675205 5330.440638 3031.781764 5397.26803 3139.698195 M 5104.99672 4524.421673 C 5127.944003 4496.611766 5385.181294 4040.109521 5492.385394 3925.721602 M 4991.924421 4241.862525 C 5031.425279 4073.428937 5176.641291 3843.866027 5285.684677 3746.09409 M 4943.139549 2164.252592 C 4953.56217 2117.115674 4968.276458 2070.853282 4984.392107 2025.465415 C 5034.140415 1885.71626 5097.814746 1752.176236 5167.970371 1621.609597 C 5397.968711 1194.403952 5574.452586 814.422676 5638.652427 330.285429 M 5544.498499 2924.12769 C 5480.035902 3083.116403 5361.620915 3204.67543 5252.665114 3333.580471 C 5035.979701 3590.078763 4969.677819 3898.348957 4984.392107 4237.489898 C 4995.077483 4483.756243 5262.824979 4714.456037 5263.17532 4715.94273 L 5263.438075 4713.931322 C 5257.920217 4712.182271 5533.900708 4358.174399 5647.673687 4252.619187 C 5893.612506 4024.368064 6353.959526 3672.02179 6483.76057 3367.424603 C 6670.141555 2930.161915 6431.55988 2168.275409 6148.572585 1803.860685 C 5965.257077 1567.738834 5707.581861 1366.597998 5453.322462 1211.282291 M 4635.62844 5849.327616 C 4644.82487 5818.981585 4656.210927 5789.247722 4667.859738 5759.776217 C 4697.813825 5684.829393 4730.220293 5610.844546 4762.714347 5536.947152 C 4829.366569 5385.741715 4898.558759 5235.32335 4944.102984 5076.072279 C 4994.989898 4897.58165 5037.030722 4694.779216 5080.998417 4514.539536 M 4079.37579 6316.761428 C 4101.009298 6330.054214 4124.306921 6340.548519 4148.130054 6349.20632 C 4217.234658 6374.305198 4290.63093 6390.746275 4362.888596 6404.126513 C 4629.847827 6453.624649 4898.558759 6448.989665 5167.532446 6425.02767 C 5234.885349 6418.993445 5303.026517 6413.046672 5370.642175 6413.046672 C 5372.744217 6413.046672 5389.385376 6415.582796 5390.523982 6413.396482 C 5392.012928 6410.598001 5385.881974 6403.251988 5384.743368 6401.415485 C 5334.031625 6322.883106 5293.830087 6236.567451 5255.02991 6151.73849 C 5195.559661 6021.784019 4971.166765 5373.935622 4865.889535 5301.350016 M 2420.690123 6276.008546 C 2462.293021 6298.833658 2636.76244 6363.985799 2680.730135 6381.826116 C 2812.107709 6435.259617 2953.469979 6470.240632 3094.481909 6485.107563 C 3347.777872 6511.693134 3601.33659 6476.012499 3843.509252 6400.803317 C 3976.375772 6359.438267 4104.249945 6287.902091 4239.919186 6260.267089 M 1798.223176 3142.759034 C 1798.923856 3142.933939 1806.456171 3134.188685 1807.156851 3133.576517 C 2490.670577 2468.674875 3944.144474 2602.91452 4141.210835 2624.690202 C 4441.102045 2657.922166 5093.785834 2872.967956 5141.694856 3478.751683 M 1027.47474 3826.462972 C 1018.190725 3822.61506 677.747638 3165.933956 648.056306 3116.78563 C 262.944843 2478.469559 -408.832487 1616.712255 487.250155 1076.168121 M 1565.772455 5450.981307 C 1547.729934 5443.547842 1355.918676 5018.003795 1340.328537 4984.334568 C 1191.871878 4663.471208 1089.309785 4345.231424 1052.173724 3993.234961 C 1030.627802 3789.120738 1035.26981 3571.101562 985.696672 3371.185062 M 1427.738417 5181.102777 C 1434.657635 5178.479201 1399.36086 5250.277734 1389.025825 5289.019208 C 1366.078542 5375.509768 1347.335341 5463.399568 1330.081086 5551.289368 C 1310.37445 5651.335071 1170.238371 6465.868005 1207.199262 6531.89467 C 1213.59297 6543.2635 1510.593873 6535.742582 1539.059014 6535.742582 C 1885.895811 6535.742582 2335.64504 6527.609496 2661.461424 6387.947794 " stroke="#5e6697" stroke-width="85" stroke-opacity="1" stroke-miterlimit="10"/></g><path stroke-linecap="round" transform="matrix(0.0445995, 0, 0, -0.0446671, 43.128258, 326.342703)" fill="none" stroke-linejoin="round" d="M 3061.987526 1228.072534 C 3055.856573 1234.194211 3074.337016 1216.004084 3080.99348 1210.582026 C 3092.554705 1201.312057 3104.028345 1191.867183 3115.151645 1181.985047 C 3145.718824 1155.137118 3174.359132 1125.57816 3201.59808 1095.407035 C 3287.256249 1000.695936 3365.64486 887.532353 3414.604897 768.771807 M 2798.006215 1157.935599 C 2797.39312 1154.437497 2835.229857 1127.414663 2838.382918 1124.703635 C 2971.337009 1006.205446 3056.732423 866.893554 3158.85658 725.307896 M 437.589385 1097.593348 C 449.32578 1128.551546 410.438022 1037.163645 400.978838 1005.505826 C 379.695673 933.96965 361.91591 861.034234 348.077474 787.749008 C 310.941417 590.543536 252.96012 324.687822 315.233084 125.121131 M 4858.006358 3517.492512 C 4873.68408 3495.891735 4949.007214 3487.321387 4973.268271 3477.701607 C 5055.335453 3445.344169 5129.257227 3397.857441 5205.105872 3353.693909 M 4799.937476 3642.811998 C 4796.34649 3633.629482 4819.556525 3645.348122 4829.453635 3646.397552 C 4851.525065 3648.846223 4873.68408 3651.557252 4895.843095 3653.743565 C 4957.152623 3659.865243 5002.521674 3640.10097 5063.831202 3632.142789 M 4698.16366 3743.120059 C 4690.368591 3739.70941 4711.301416 3753.876721 4718.395804 3758.511705 C 4741.693425 3773.553542 4765.954481 3787.28359 4790.127952 3801.013638 C 4837.686628 3827.861567 4927.636465 3899.310291 4984.216401 3901.933867 M 3165.950968 3579.846171 C 3166.564064 3583.344273 3142.127837 3570.051487 3115.23923 3557.983037 C 3080.99348 3542.678843 3047.098069 3526.500123 3013.290244 3510.233951 C 2914.757073 3462.922129 2818.413529 3411.500037 2723.471346 3357.454368 C 2431.637992 3191.644357 2126.141372 3002.397066 1901.836085 2747.560372 M 2837.769823 3634.94127 C 2839.258769 3629.256855 2825.945843 3635.028722 2820.16523 3633.804387 C 2775.058934 3624.534418 2730.565734 3610.454559 2686.598044 3596.811963 C 2582.371846 3564.367072 2479.634594 3526.937386 2378.123533 3486.709219 C 2074.466199 3366.287075 1768.531654 3229.074043 1494.478063 3049.359079 M 3068.556404 3790.606787 C 3068.381234 3785.621992 3060.67375 3797.253179 3055.856573 3798.827325 C 3044.295348 3802.587784 3031.683102 3803.81212 3019.683951 3805.386265 C 2978.518983 3810.808323 2937.266429 3814.131519 2895.92629 3816.755095 C 2774.183084 3824.276013 2651.739198 3821.564985 2529.995992 3816.405285 C 2149.351408 3800.314018 1719.746786 3777.488906 1368.092851 3611.15418 M 422.349588 1118.144694 C 427.341935 1124.87854 434.786663 1106.688412 441.793467 1101.878522 C 462.375951 1087.448854 484.009456 1074.24352 505.818131 1061.650355 C 560.383611 1030.342347 618.277322 1003.93168 676.521374 980.319495 C 857.909992 907.121721 1049.808815 869.16732 1244.597944 857.973395 C 1509.805445 842.844106 1780.005294 827.10265 2045.563136 823.167285 C 2434.177958 817.307965 2700.78682 843.106464 3074.774942 707.729936 L 3078.015588 706.5056 C 3393.584488 633.745089 3571.469704 795.969546 3380.271561 1114.296783 C 3306.875298 1236.642883 3195.554712 1335.81406 3086.511337 1425.452911 C 2624.062325 1804.996923 2060.802933 2004.825972 1459.794388 1953.666237 C 1282.609851 1938.624401 1107.965282 1904.255553 935.335167 1862.365788 C 922.810507 1859.304949 772.164238 1831.40759 769.273931 1817.852446 M 4002.037761 3898.435765 C 4013.248646 3860.306459 4051.348139 3766.557339 4073.594739 3733.412827 C 4211.453592 3528.511532 4369.457004 3660.914673 4391.528434 3671.234073 M 4001.161911 3909.454785 C 4000.198475 3909.717143 3998.096434 3895.112569 3997.833679 3893.975686 C 3994.505448 3877.359704 3990.388951 3860.831174 3985.746944 3844.565002 C 3973.747793 3802.150521 3956.931465 3760.435661 3933.458675 3723.005975 C 3863.653398 3612.291063 3693.300495 3577.484953 3581.104058 3645.697932 " stroke="#5e6697" stroke-width="85" stroke-opacity="1" stroke-miterlimit="10"/><path fill="#e06cb9" d="M 273.445312 48.003906 C 273.34375 45.660156 247.808594 43.734375 243.550781 49.289062 C 242.390625 50.792969 255.636719 65.011719 260.199219 70.945312 C 263.242188 74.902344 273.652344 52.890625 273.445312 48.003906 Z M 112.3125 48.210938 C 109.59375 50.734375 110.800781 78.382812 116.578125 78.261719 C 122.355469 78.140625 147.691406 52.5 146.980469 47.492188 C 146.273438 42.484375 116.847656 44.003906 112.3125 48.210938 Z M 227.289062 146.765625 C 226.78125 147.355469 226.199219 147.890625 225.617188 148.398438 C 224.628906 149.253906 223.539062 150.101562 222.351562 150.65625 L 221.855469 150.792969 C 221.871094 151.164062 221.167969 150.5 220.84375 150.316406 C 220.21875 149.964844 219.621094 149.5625 219.054688 149.121094 C 218.09375 148.367188 213.25 144.003906 214.921875 142.621094 C 216.371094 141.414062 219.800781 142.09375 221.5 142.171875 C 225.050781 142.34375 231.933594 141.386719 227.289062 146.765625 " fill-opacity="1" fill-rule="evenodd"/><g fill="#5e6697" fill-opacity="1"><g transform="translate(66.785788, 356.275504)"><g><path d="M 27.125 -35.625 C 29.75 -40.34375 22.4375 -44.359375 19.875 -39.71875 C 18.140625 -36.671875 15.71875 -31.90625 12.46875 -29.890625 C 12.578125 -33.5 12.625 -37.078125 12.5625 -40.703125 C 12.515625 -46.078125 4.15625 -45.921875 4.21875 -40.546875 C 4.34375 -29.921875 3.875 -19.28125 2.6875 -8.734375 C 2.375 -6.5 3.265625 -4.296875 5.671875 -3.671875 C 7.609375 -3.140625 10.5 -4.421875 10.71875 -6.65625 C 11.3125 -11.34375 11.734375 -15.96875 12.03125 -20.65625 C 14.96875 -18.03125 16.875 -14.390625 17.28125 -10.4375 C 17.875 -5.171875 26.21875 -5.265625 25.625 -10.59375 C 25.03125 -16.15625 22.875 -21.015625 19.359375 -24.953125 C 22.59375 -27.90625 25.015625 -31.84375 27.125 -35.625 Z M 27.125 -35.625 "/></g></g></g><g fill="#5e6697" fill-opacity="1"><g transform="translate(118.075671, 355.335244)"><g><path d="M 30.28125 -35.953125 C 25.59375 -43.375 13.671875 -44.09375 7.828125 -37.9375 C 2.078125 -32.8125 1.453125 -21.171875 3.234375 -14.703125 C 4.484375 -10.265625 7.53125 -5.65625 12.109375 -4.28125 C 16.875 -2.8125 22.0625 -4.640625 25.734375 -7.75 C 29.46875 -11 31.71875 -15.671875 32.40625 -20.515625 C 33.046875 -25.3125 32.984375 -31.71875 30.28125 -35.953125 Z M 20.5625 -14.125 C 20.390625 -14 20.28125 -13.890625 20.109375 -13.734375 C 18.359375 -12.1875 15.546875 -11.515625 13.625 -12.9375 C 12.375 -13.8125 11.796875 -15.296875 11.390625 -16.75 C 10.78125 -19.125 10.625 -21.625 10.859375 -24.078125 C 11.09375 -26.3125 11.59375 -29.15625 12.84375 -31.015625 C 13.984375 -32.65625 15.921875 -33.6875 17.921875 -33.78125 C 21.375 -33.90625 23.625 -31.59375 24.078125 -28.390625 C 24.84375 -23.5 24.21875 -17.75 20.5625 -14.125 Z M 20.5625 -14.125 "/></g></g></g><g fill="#5e6697" fill-opacity="1"><g transform="translate(174.26061, 354.305246)"><g><path d="M 24.609375 -38.75 C 18.421875 -39.40625 12.25 -39.40625 6.03125 -38.6875 C 0.75 -38.03125 0.84375 -29.6875 6.1875 -30.34375 C 7.84375 -30.53125 9.453125 -30.671875 11.0625 -30.765625 C 10.71875 -22.625 10.421875 -14.453125 10.078125 -6.3125 C 9.828125 -0.96875 18.171875 -1.109375 18.421875 -6.46875 C 18.765625 -14.59375 19.0625 -22.671875 19.40625 -30.796875 C 21.1875 -30.734375 22.984375 -30.59375 24.765625 -30.40625 C 30.125 -29.828125 29.921875 -38.171875 24.609375 -38.75 Z M 24.609375 -38.75 "/></g></g></g><g fill="#5e6697" fill-opacity="1"><g transform="translate(226.496128, 353.34765)"><g><path d="M 4.65625 -34.375 C 3.734375 -24.34375 3.078125 -14.25 2.703125 -4.171875 C 2.484375 1.234375 10.8125 1.015625 11.046875 -4.328125 C 11.421875 -14.40625 12.078125 -24.5 13 -34.53125 C 13.46875 -39.875 5.125 -39.71875 4.65625 -34.375 Z M 4.65625 -34.375 "/></g></g></g><g fill="#5e6697" fill-opacity="1"><g transform="translate(263.100884, 352.676602)"><g><path d="M 27.125 -35.625 C 29.75 -40.34375 22.4375 -44.359375 19.875 -39.71875 C 18.140625 -36.671875 15.71875 -31.90625 12.46875 -29.890625 C 12.578125 -33.5 12.625 -37.078125 12.5625 -40.703125 C 12.515625 -46.078125 4.15625 -45.921875 4.21875 -40.546875 C 4.34375 -29.921875 3.875 -19.28125 2.6875 -8.734375 C 2.375 -6.5 3.265625 -4.296875 5.671875 -3.671875 C 7.609375 -3.140625 10.5 -4.421875 10.71875 -6.65625 C 11.3125 -11.34375 11.734375 -15.96875 12.03125 -20.65625 C 14.96875 -18.03125 16.875 -14.390625 17.28125 -10.4375 C 17.875 -5.171875 26.21875 -5.265625 25.625 -10.59375 C 25.03125 -16.15625 22.875 -21.015625 19.359375 -24.953125 C 22.59375 -27.90625 25.015625 -31.84375 27.125 -35.625 Z M 27.125 -35.625 "/></g></g></g></svg>