<svg xmlns="http://www.w3.org/2000/svg" xmlns:xlink="http://www.w3.org/1999/xlink" width="100" zoomAndPan="magnify" viewBox="0 0 75 74.999997" height="100" preserveAspectRatio="xMidYMid meet" version="1.0"><defs><clipPath id="5dc671b175"><path d="M 0.996094 0.996094 L 74.496094 0.996094 L 74.496094 74.496094 L 0.996094 74.496094 Z M 0.996094 0.996094 " clip-rule="nonzero"/></clipPath><clipPath id="85cdcb8314"><path d="M 18.152344 18.839844 L 53.402344 18.839844 L 53.402344 54 L 18.152344 54 Z M 18.152344 18.839844 " clip-rule="nonzero"/></clipPath></defs><g clip-path="url(#5dc671b175)"><path fill="#ae1ec1" d="M 71.984375 36.035156 L 39.085938 3.136719 C 37.753906 1.820312 35.925781 0.996094 33.914062 0.996094 L 8.3125 0.996094 C 4.269531 0.996094 0.996094 4.269531 0.996094 8.3125 L 0.996094 33.914062 C 0.996094 35.941406 1.820312 37.769531 3.152344 39.085938 L 36.070312 72.003906 C 37.386719 73.320312 39.214844 74.144531 41.226562 74.144531 C 43.238281 74.144531 45.085938 73.320312 46.402344 72.003906 L 72.003906 46.402344 C 73.320312 45.066406 74.144531 43.238281 74.144531 41.226562 C 74.144531 39.199219 73.320312 37.367188 71.984375 36.035156 Z M 13.796875 19.28125 C 10.761719 19.28125 8.3125 16.832031 8.3125 13.796875 C 8.3125 10.761719 10.761719 8.3125 13.796875 8.3125 C 16.832031 8.3125 19.28125 10.761719 19.28125 13.796875 C 19.28125 16.832031 16.832031 19.28125 13.796875 19.28125 Z M 13.796875 19.28125 " fill-opacity="1" fill-rule="nonzero"/></g><g clip-path="url(#85cdcb8314)"><path fill="#ffffff" d="M 35.71875 18.800781 C 35.332031 18.804688 34.960938 18.886719 34.609375 19.039062 C 34.253906 19.191406 33.941406 19.40625 33.671875 19.683594 C 33.40625 19.957031 33.199219 20.277344 33.054688 20.632812 C 32.914062 20.992188 32.84375 21.363281 32.851562 21.75 L 32.851562 33.390625 L 21.210938 33.390625 C 20.820312 33.386719 20.445312 33.457031 20.082031 33.601562 C 19.722656 33.746094 19.402344 33.957031 19.125 34.230469 C 18.847656 34.503906 18.632812 34.820312 18.484375 35.179688 C 18.332031 35.539062 18.257812 35.914062 18.257812 36.300781 C 18.257812 36.691406 18.332031 37.066406 18.484375 37.425781 C 18.632812 37.785156 18.847656 38.101562 19.125 38.375 C 19.402344 38.648438 19.722656 38.859375 20.082031 39.003906 C 20.445312 39.148438 20.820312 39.21875 21.210938 39.210938 L 32.851562 39.210938 L 32.851562 50.855469 C 32.84375 51.242188 32.914062 51.617188 33.058594 51.980469 C 33.207031 52.339844 33.414062 52.660156 33.6875 52.9375 C 33.960938 53.214844 34.277344 53.429688 34.636719 53.582031 C 34.996094 53.730469 35.371094 53.804688 35.761719 53.804688 C 36.148438 53.804688 36.523438 53.730469 36.882812 53.582031 C 37.242188 53.429688 37.558594 53.214844 37.832031 52.9375 C 38.105469 52.660156 38.316406 52.339844 38.460938 51.980469 C 38.605469 51.617188 38.675781 51.242188 38.671875 50.855469 L 38.671875 39.210938 L 50.3125 39.210938 C 50.703125 39.21875 51.078125 39.148438 51.4375 39.003906 C 51.800781 38.859375 52.121094 38.648438 52.398438 38.375 C 52.675781 38.101562 52.886719 37.785156 53.039062 37.425781 C 53.1875 37.066406 53.265625 36.691406 53.265625 36.300781 C 53.265625 35.914062 53.1875 35.539062 53.039062 35.179688 C 52.886719 34.820312 52.675781 34.503906 52.398438 34.230469 C 52.121094 33.957031 51.800781 33.746094 51.4375 33.601562 C 51.078125 33.457031 50.703125 33.386719 50.3125 33.390625 L 38.671875 33.390625 L 38.671875 21.75 C 38.675781 21.359375 38.605469 20.980469 38.457031 20.613281 C 38.308594 20.25 38.097656 19.929688 37.816406 19.652344 C 37.539062 19.375 37.21875 19.160156 36.855469 19.011719 C 36.488281 18.867188 36.109375 18.792969 35.71875 18.800781 Z M 35.71875 18.800781 " fill-opacity="1" fill-rule="nonzero"/></g></svg>